<svg width="386" height="375" viewBox="0 0 386 375" fill="none" xmlns="http://www.w3.org/2000/svg">
<path d="M359.598 94.2226C358.367 92.1639 357.081 90.131 355.737 88.1238C337.85 61.6056 307.055 43.4713 276.762 35.2726C263.471 31.7371 249.817 29.7451 236.07 29.336C146.039 26.248 110.18 97.272 80.4269 115.545C50.674 133.818 4.89437 165.138 7.95149 230.751C11.0086 296.363 58.3013 358.131 149.853 361.991C241.404 365.851 247.511 324.603 298.625 309.348C332.454 299.25 356.525 265.143 368.259 233.623C384.301 190.684 383.545 134.861 359.598 94.2226Z" fill="#FF781F"/>
<path d="M7.57324 345.285H373.439" stroke="#263238" stroke-miterlimit="10"/>
<path d="M348.172 240.803C348.176 240.794 348.178 240.785 348.178 240.775C348.178 240.766 348.176 240.757 348.173 240.748C348.169 240.739 348.164 240.732 348.157 240.725C348.15 240.718 348.142 240.713 348.134 240.71C348.12 240.698 348.102 240.691 348.083 240.691C348.065 240.691 348.047 240.698 348.033 240.71C345.807 246.002 344.045 251.478 342.768 257.076C341.491 262.663 340.532 268.318 339.896 274.014L339.487 278.291C339.425 279.009 339.348 279.719 339.294 280.429L339.178 282.583C339.117 284.011 339.032 285.447 338.985 286.876L339.024 291.176L339.078 293.329C339.078 294.047 339.155 294.758 339.209 295.476C339.317 296.904 339.402 298.332 339.533 299.76C339.811 302.609 340.236 305.45 340.676 308.252C340.679 308.271 340.689 308.288 340.703 308.3C340.717 308.313 340.734 308.32 340.753 308.322C340.773 308.32 340.792 308.311 340.806 308.297C340.82 308.283 340.829 308.264 340.83 308.244C340.83 306.816 340.761 305.388 340.73 303.96C340.699 302.532 340.56 301.119 340.583 299.691C340.607 298.263 340.583 296.842 340.537 295.422V293.291V291.16V286.899L340.653 282.637L340.699 280.507C340.699 279.796 340.776 279.086 340.815 278.376L341.077 274.122C341.581 268.45 342.404 262.811 343.54 257.231C344.606 251.631 346.156 246.134 348.172 240.803Z" fill="#263238"/>
<path d="M348.759 263.082C348.762 263.064 348.76 263.045 348.751 263.028C348.743 263.011 348.729 262.998 348.712 262.989C348.703 262.986 348.693 262.984 348.682 262.984C348.672 262.985 348.662 262.987 348.652 262.991C348.643 262.996 348.635 263.002 348.628 263.01C348.621 263.017 348.616 263.026 348.612 263.036C347.408 266.582 346.395 270.189 345.578 273.844C344.776 277.516 344.178 281.23 343.787 284.968C343.409 288.697 343.015 292.434 342.946 296.185C342.849 299.937 342.981 303.69 343.339 307.426C343.339 307.464 343.339 307.495 343.409 307.495C343.419 307.496 343.429 307.495 343.439 307.492C343.449 307.49 343.458 307.485 343.466 307.478C343.474 307.472 343.48 307.464 343.485 307.455C343.49 307.446 343.493 307.436 343.494 307.426C343.926 303.697 344.189 299.968 344.451 296.247C344.713 292.526 344.744 288.797 344.991 285.069C345.507 277.627 346.769 270.256 348.759 263.067V263.082Z" fill="#263238"/>
<path d="M361.111 270.926C361.104 270.919 361.096 270.914 361.088 270.91C361.079 270.906 361.07 270.904 361.061 270.904C361.051 270.904 361.042 270.906 361.033 270.91C361.025 270.914 361.017 270.919 361.01 270.926C357.921 272.911 355.138 275.338 352.75 278.128C351.547 279.532 350.465 281.035 349.515 282.622L348.851 283.872L348.334 285.169C348.149 285.601 348.018 286.049 347.879 286.489C347.74 286.929 347.601 287.377 347.477 287.825C346.531 291.389 345.959 295.042 345.771 298.725C345.583 302.387 345.72 306.058 346.18 309.696C346.18 309.734 346.18 309.765 346.25 309.765C346.269 309.765 346.288 309.758 346.302 309.745C346.316 309.732 346.325 309.715 346.327 309.696L347.269 298.826C347.53 295.234 347.991 291.659 348.651 288.118C348.743 287.678 348.875 287.254 348.983 286.821C349.081 286.386 349.207 285.958 349.361 285.54L349.801 284.281L350.372 283.1C351.231 281.52 352.22 280.015 353.329 278.599C355.536 275.72 358.15 273.177 361.088 271.049C361.1 271.046 361.112 271.039 361.121 271.029C361.13 271.02 361.136 271.008 361.138 270.995C361.141 270.982 361.139 270.969 361.135 270.956C361.13 270.944 361.121 270.933 361.111 270.926Z" fill="#263238"/>
<path d="M355.12 284.868C353.514 286.041 352.222 287.592 351.36 289.384C350.456 291.146 349.749 293.002 349.253 294.92C349.106 295.391 348.99 295.869 348.89 296.356L348.55 297.799C348.368 298.769 348.245 299.748 348.18 300.733C348.18 301.713 348.18 302.701 348.18 303.682C348.25 304.666 348.379 305.646 348.566 306.615C348.569 306.63 348.577 306.644 348.588 306.655C348.599 306.666 348.613 306.673 348.627 306.677C348.637 306.679 348.647 306.68 348.657 306.678C348.667 306.676 348.676 306.672 348.684 306.666C348.692 306.66 348.699 306.652 348.704 306.644C348.709 306.635 348.712 306.625 348.712 306.615C348.939 305.663 349.114 304.699 349.237 303.728C349.392 302.771 349.538 301.821 349.654 300.872C349.77 299.922 349.917 298.98 349.994 298.023C350.071 297.066 350.195 296.124 350.395 295.19C350.73 293.309 351.271 291.471 352.009 289.709C352.674 287.911 353.756 286.297 355.166 284.999C355.173 284.993 355.178 284.985 355.182 284.977C355.186 284.968 355.188 284.959 355.188 284.949C355.188 284.94 355.186 284.931 355.182 284.922C355.178 284.913 355.173 284.906 355.166 284.899C355.161 284.891 355.154 284.884 355.146 284.879C355.138 284.873 355.129 284.87 355.12 284.868Z" fill="#263238"/>
<path d="M337.804 295.769C337.403 290.944 336.608 286.173 335.851 281.394C335.094 276.615 334.276 271.868 333.396 267.112C332.516 262.356 331.543 257.632 330.524 252.915C330.518 252.896 330.505 252.88 330.488 252.869C330.472 252.857 330.452 252.852 330.432 252.853C330.412 252.859 330.395 252.871 330.383 252.888C330.372 252.905 330.367 252.926 330.37 252.946C331.196 257.701 331.914 262.465 332.686 267.236C333.458 272.007 334.091 276.785 334.693 281.564C335.295 286.343 335.743 291.152 336.337 295.923L338.105 310.282C338.105 310.301 338.113 310.318 338.126 310.331C338.139 310.344 338.156 310.352 338.175 310.352C338.184 310.353 338.194 310.352 338.204 310.349C338.213 310.346 338.222 310.341 338.229 310.334C338.236 310.328 338.242 310.32 338.246 310.311C338.25 310.302 338.252 310.292 338.252 310.282C338.306 309.07 338.314 307.858 338.345 306.646C338.375 305.434 338.291 304.23 338.267 303.018C338.198 300.594 337.989 298.177 337.804 295.769Z" fill="#263238"/>
<path d="M334.917 295.676C334.654 293.762 334.307 291.863 333.944 289.971L333.265 287.153C333.041 286.219 332.832 285.277 332.554 284.351C331.594 280.618 330.363 276.959 328.872 273.404L328.293 272.076L327.652 270.779C327.243 269.907 326.749 269.073 326.278 268.232C325.333 266.537 324.162 264.979 322.796 263.6C322.782 263.586 322.763 263.578 322.742 263.578C322.722 263.578 322.703 263.586 322.688 263.6C322.677 263.615 322.671 263.634 322.671 263.654C322.671 263.673 322.677 263.692 322.688 263.708C323.957 265.131 325.029 266.717 325.877 268.425C326.294 269.282 326.734 270.123 327.096 271.011L327.66 272.323L328.162 273.667C329.497 277.241 330.573 280.907 331.381 284.637C331.821 286.49 332.107 288.381 332.47 290.257L332.917 293.082C333.087 294.024 333.288 294.951 333.419 295.9C333.72 297.784 334.068 299.668 334.392 301.551C334.716 303.435 335.033 305.334 335.434 307.225C335.438 307.241 335.447 307.256 335.46 307.267C335.472 307.278 335.487 307.285 335.503 307.287C335.514 307.288 335.525 307.287 335.534 307.284C335.544 307.28 335.553 307.275 335.561 307.267C335.568 307.26 335.574 307.251 335.577 307.241C335.581 307.231 335.582 307.22 335.581 307.21C335.581 305.288 335.542 303.35 335.449 301.435C335.357 299.521 335.117 297.614 334.917 295.676Z" fill="#263238"/>
<path d="M330.925 295.947C330.03 293.414 328.995 290.936 327.837 288.504C326.692 286.083 325.403 283.732 323.977 281.464C323.964 281.452 323.946 281.445 323.927 281.445C323.909 281.445 323.891 281.452 323.877 281.464C323.87 281.47 323.865 281.478 323.861 281.487C323.858 281.495 323.856 281.505 323.856 281.514C323.856 281.523 323.858 281.533 323.861 281.541C323.865 281.55 323.87 281.558 323.877 281.564C325.112 283.918 326.205 286.344 327.15 288.829C328.131 291.299 329.019 293.8 329.752 296.34C330.485 298.88 331.049 301.474 331.728 304.022C332.408 306.569 333.01 309.148 333.797 311.742C333.802 311.757 333.811 311.77 333.824 311.78C333.836 311.789 333.851 311.795 333.867 311.796C333.887 311.796 333.907 311.788 333.921 311.773C333.936 311.759 333.944 311.739 333.944 311.719C333.969 309.025 333.711 306.337 333.172 303.697C332.635 301.057 331.884 298.465 330.925 295.947Z" fill="#263238"/>
<path d="M330.756 304.377C330.267 302.797 329.552 301.297 328.633 299.922C327.78 298.504 326.742 297.205 325.545 296.062C324.932 295.511 324.273 295.013 323.576 294.572C322.888 294.127 322.135 293.788 321.345 293.569C321.329 293.565 321.311 293.567 321.296 293.574C321.281 293.581 321.268 293.593 321.26 293.607C321.252 293.626 321.252 293.647 321.259 293.665C321.266 293.684 321.28 293.699 321.299 293.708C322.723 294.389 323.984 295.369 324.997 296.58C326.027 297.757 326.894 299.069 327.575 300.478C328.308 301.868 328.687 303.396 329.32 304.825C329.605 305.558 329.883 306.291 330.208 307.025C330.482 307.785 330.804 308.528 331.173 309.248C331.178 309.26 331.187 309.269 331.198 309.276C331.209 309.283 331.221 309.287 331.234 309.287C331.244 309.288 331.255 309.287 331.265 309.284C331.274 309.281 331.283 309.276 331.291 309.27C331.299 309.263 331.306 309.255 331.311 309.246C331.315 309.237 331.318 309.227 331.319 309.217C331.343 308.393 331.312 307.567 331.227 306.747C331.119 305.975 330.949 305.172 330.756 304.377Z" fill="#263238"/>
<path d="M331.057 259.817C328.648 259.145 326.469 257.828 324.754 256.007C323.04 254.187 321.856 251.932 321.33 249.487C319.5 240.995 325.383 244.624 320.11 231.245C314.837 217.866 316.057 214.832 317.879 210.98C319.701 207.128 320.72 208.348 322.341 213.412C323.962 218.476 329.837 226.382 332.068 241.204C334.299 256.026 331.057 259.817 331.057 259.817Z" fill="#FF781F"/>
<path d="M346.628 245.434C346.628 245.434 341.363 243.605 341.155 233.677C340.946 223.749 345.015 225.772 345.617 213.412C346.219 201.052 347.037 192.336 349.261 192.136C351.484 191.935 357.367 198.211 359.397 211.991C361.427 225.772 356.765 234.889 352.712 238.95C348.659 243.01 346.628 245.434 346.628 245.434Z" fill="#FF781F"/>
<path d="M328.216 271.744C328.216 271.744 327.004 264.449 324.572 261.006C322.14 257.563 316.852 254.521 313.424 247.835C309.997 241.15 306.129 237.9 306.33 247.426C306.53 256.953 310.792 261.816 316.057 265.059C321.322 268.301 328.216 271.744 328.216 271.744Z" fill="#FF781F"/>
<path d="M325.992 284.343C325.992 284.343 321.129 275.017 314.034 268.131C306.94 261.245 301.265 257.794 303.288 261.237C305.311 264.68 307.75 264.479 311.193 270.563C314.636 276.646 313.625 281.101 318.489 284.544C323.352 287.987 325.992 284.343 325.992 284.343Z" fill="#FF781F"/>
<path d="M325.383 296.301C325.182 295.692 324.974 291.229 318.087 287.586C311.201 283.942 304.709 285.354 305.519 287.176C306.33 288.998 310.583 292.04 314.845 293.87C319.106 295.699 325.383 296.301 325.383 296.301Z" fill="#FF781F"/>
<path d="M346.258 272.184C346.258 272.184 343.216 268.324 344.837 260.226C346.458 252.128 350.102 254.143 354.155 249.889C358.208 245.635 357.398 245.025 361.451 240.563C365.504 236.101 369.171 233.677 370.776 235.499C372.382 237.321 370.004 243.003 367.534 246.245C365.064 249.488 361.25 251.109 359.428 255.162C357.606 259.215 358.417 265.7 353.754 268.733C349.091 271.767 346.258 272.184 346.258 272.184Z" fill="#FF781F"/>
<path d="M356.386 274.407C356.386 274.407 363.682 266.101 368.954 260.025C374.227 253.949 376.25 249.279 376.451 253.332C376.651 257.385 378.272 260.627 374.019 265.9C369.765 271.173 356.386 274.407 356.386 274.407Z" fill="#FF781F"/>
<path d="M352.534 287.786C352.534 287.786 352.333 284.544 363.882 277.048C375.431 269.551 380.303 268.131 379.083 271.165C377.863 274.199 372.807 277.248 367.333 282.745C361.86 288.242 352.534 287.786 352.534 287.786Z" fill="#FF781F"/>
<path d="M331.536 258.952C331.536 258.952 328.826 244.415 325.993 234.078C323.159 223.741 321.361 217.465 321.361 217.465" stroke="#263238" stroke-width="0.5" stroke-linecap="round" stroke-linejoin="round"/>
<path d="M346.196 245.581C346.196 245.581 351.121 229.825 352.742 220.298C354.364 210.772 352.534 203.685 351.723 199.454" stroke="#263238" stroke-width="0.5" stroke-linecap="round" stroke-linejoin="round"/>
<path d="M327.583 271.474C325.4 267.721 322.9 264.162 320.11 260.836C315.655 255.563 312.205 252.73 310.182 247.658" stroke="#263238" stroke-width="0.5" stroke-linecap="round" stroke-linejoin="round"/>
<path d="M346.258 272.184C346.258 272.184 347.879 262.457 351.723 257.385C355.568 252.313 363.303 244.415 366.314 239.351" stroke="#263238" stroke-width="0.5" stroke-linecap="round" stroke-linejoin="round"/>
<path d="M324.904 296.078C324.904 296.078 318.087 291.639 313.224 289.207" stroke="#263238" stroke-width="0.5" stroke-linecap="round" stroke-linejoin="round"/>
<path d="M349.284 349.539H330.2L326.108 304.23H353.375L349.284 349.539Z" fill="#263238" stroke="#263238" stroke-linecap="round" stroke-linejoin="round"/>
<path d="M108.234 71.7495H48.937V145.622H108.234V71.7495Z" stroke="#263238" stroke-linecap="round" stroke-linejoin="round"/>
<path d="M106.297 74.1582H50.8748V143.198H106.297V74.1582Z" stroke="#263238" stroke-linecap="round" stroke-linejoin="round"/>
<path d="M89.9843 94.4927H67.1948V122.879H89.9843V94.4927Z" stroke="#263238" stroke-linecap="round" stroke-linejoin="round"/>
<path d="M153.288 28.186L154.369 42.854C154.678 42.5938 155.053 42.424 155.452 42.3633C155.852 42.3026 156.26 42.3534 156.632 42.5101C157.005 42.6668 157.326 42.9233 157.562 43.2513C157.798 43.5793 157.938 43.9661 157.968 44.3689C157.998 44.7717 157.916 45.175 157.731 45.5341C157.546 45.8933 157.266 46.1944 156.921 46.4043C156.576 46.6141 156.179 46.7245 155.775 46.7233C155.371 46.7222 154.976 46.6094 154.632 46.3975L154.855 49.4083C155.203 49.1132 155.636 48.9373 156.091 48.9065C156.377 48.8852 156.665 48.9206 156.938 49.0105C157.21 49.1004 157.463 49.2432 157.68 49.4307C157.898 49.6181 158.076 49.8466 158.206 50.103C158.335 50.3595 158.412 50.6389 158.434 50.9253C158.455 51.2117 158.42 51.4995 158.33 51.7722C158.24 52.045 158.097 52.2973 157.91 52.5149C157.722 52.7325 157.494 52.911 157.237 53.0403C156.981 53.1695 156.701 53.247 156.415 53.2683C155.957 53.3045 155.5 53.1936 155.11 52.9518L155.334 55.9626C155.599 55.7424 155.912 55.5879 156.248 55.5119C156.585 55.4359 156.934 55.4404 157.268 55.5251C157.602 55.6099 157.911 55.7724 158.17 55.9994C158.429 56.2264 158.631 56.5115 158.759 56.8314C158.887 57.1513 158.938 57.497 158.906 57.8401C158.875 58.1832 158.763 58.5142 158.58 58.8058C158.397 59.0975 158.147 59.3417 157.851 59.5184C157.555 59.6951 157.222 59.7993 156.878 59.8226C156.423 59.8582 155.969 59.7473 155.581 59.5061L155.797 62.5169C156.062 62.2918 156.377 62.1329 156.716 62.0535C157.054 61.974 157.407 61.9762 157.744 62.0599C158.082 62.1436 158.395 62.3064 158.657 62.5348C158.919 62.7633 159.123 63.0508 159.252 63.3737C159.381 63.6966 159.432 64.0455 159.4 64.3918C159.367 64.738 159.253 65.0716 159.066 65.365C158.88 65.6584 158.626 65.9031 158.326 66.0791C158.026 66.255 157.689 66.3571 157.341 66.3769C156.884 66.4131 156.427 66.3022 156.037 66.0604L156.261 69.0712C156.569 68.8096 156.944 68.6385 157.344 68.5767C157.743 68.515 158.152 68.5651 158.526 68.7214C158.899 68.8777 159.221 69.1341 159.458 69.4624C159.694 69.7906 159.835 70.1778 159.865 70.5812C159.895 70.9846 159.813 71.3884 159.627 71.7479C159.442 72.1075 159.161 72.4088 158.815 72.6184C158.469 72.8281 158.072 72.938 157.667 72.936C157.263 72.934 156.867 72.8201 156.523 72.6069L156.739 75.6254C157.088 75.3265 157.524 75.1479 157.982 75.1159C158.328 75.0874 158.676 75.1415 158.997 75.2736C159.318 75.4057 159.603 75.6121 159.828 75.8759C160.054 76.1396 160.214 76.4531 160.294 76.7907C160.375 77.1282 160.375 77.4801 160.293 77.8174C160.211 78.1547 160.05 78.4678 159.824 78.7309C159.598 78.994 159.312 79.1996 158.991 79.3308C158.67 79.462 158.322 79.515 157.976 79.4856C157.63 79.4561 157.296 79.3449 157.002 79.1612L157.226 82.172C157.534 81.9118 157.909 81.7419 158.309 81.6812C158.708 81.6205 159.116 81.6714 159.489 81.8281C159.861 81.9848 160.183 82.2413 160.418 82.5693C160.654 82.8973 160.795 83.284 160.825 83.6869C160.854 84.0897 160.772 84.4929 160.588 84.8521C160.403 85.2113 160.122 85.5124 159.777 85.7222C159.432 85.9321 159.036 86.0425 158.632 86.0413C158.228 86.0401 157.832 85.9274 157.488 85.7155L157.704 88.7263C158.054 88.4297 158.49 88.2537 158.947 88.2245C159.233 88.2037 159.521 88.2395 159.794 88.3299C160.066 88.4203 160.318 88.5635 160.536 88.7513C160.753 88.9392 160.931 89.1679 161.06 89.4246C161.188 89.6812 161.265 89.9607 161.286 90.2471C161.307 90.5335 161.271 90.8212 161.181 91.0938C161.09 91.3663 160.947 91.6184 160.759 91.8356C160.572 92.0528 160.343 92.2309 160.086 92.3597C159.83 92.4885 159.55 92.5655 159.264 92.5863C158.809 92.6219 158.354 92.511 157.967 92.2698L158.191 95.2806C158.456 95.0603 158.769 94.9059 159.105 94.8299C159.441 94.7539 159.79 94.7584 160.124 94.8431C160.458 94.9278 160.767 95.0903 161.027 95.3174C161.286 95.5444 161.487 95.8295 161.615 96.1494C161.743 96.4693 161.794 96.8149 161.763 97.1581C161.732 97.5012 161.62 97.8321 161.436 98.1238C161.253 98.4155 161.003 98.6596 160.707 98.8363C160.412 99.013 160.078 99.1173 159.735 99.1406C159.277 99.1767 158.82 99.0658 158.43 98.824L158.654 101.835C158.919 101.615 159.232 101.46 159.568 101.384C159.904 101.308 160.253 101.313 160.587 101.397C160.921 101.482 161.231 101.645 161.49 101.872C161.749 102.099 161.951 102.384 162.079 102.704C162.207 103.024 162.257 103.369 162.226 103.712C162.195 104.055 162.083 104.386 161.9 104.678C161.716 104.97 161.466 105.214 161.171 105.391C160.875 105.567 160.541 105.672 160.198 105.695C159.743 105.73 159.288 105.62 158.901 105.378L159.117 108.389C159.425 108.128 159.8 107.956 160.2 107.895C160.6 107.833 161.009 107.883 161.382 108.039C161.755 108.196 162.078 108.452 162.314 108.78C162.55 109.109 162.691 109.496 162.721 109.899C162.751 110.303 162.669 110.706 162.484 111.066C162.298 111.425 162.017 111.727 161.671 111.936C161.325 112.146 160.928 112.256 160.524 112.254C160.119 112.252 159.723 112.138 159.379 111.925L159.603 114.943C159.952 114.644 160.388 114.466 160.846 114.434C161.192 114.405 161.54 114.459 161.861 114.592C162.182 114.724 162.467 114.93 162.692 115.194C162.918 115.458 163.078 115.771 163.158 116.109C163.239 116.446 163.239 116.798 163.157 117.135C163.075 117.473 162.915 117.786 162.688 118.049C162.462 118.312 162.176 118.518 161.855 118.649C161.534 118.78 161.186 118.833 160.84 118.804C160.494 118.774 160.16 118.663 159.866 118.479L160.082 121.49C160.347 121.265 160.662 121.106 161 121.027C161.339 120.947 161.691 120.949 162.029 121.033C162.367 121.117 162.679 121.28 162.941 121.508C163.204 121.736 163.408 122.024 163.537 122.347C163.666 122.67 163.717 123.019 163.684 123.365C163.652 123.711 163.538 124.045 163.351 124.338C163.164 124.631 162.911 124.876 162.611 125.052C162.311 125.228 161.973 125.33 161.626 125.35C161.168 125.38 160.712 125.267 160.321 125.026L160.545 128.037C160.893 127.741 161.326 127.566 161.78 127.535C162.359 127.492 162.931 127.68 163.37 128.059C163.809 128.437 164.08 128.975 164.123 129.554C164.166 130.132 163.978 130.704 163.599 131.143C163.221 131.583 162.683 131.854 162.105 131.897C161.649 131.934 161.194 131.823 160.808 131.58L161.024 134.591C161.289 134.366 161.604 134.207 161.942 134.127C162.281 134.048 162.633 134.05 162.971 134.134C163.308 134.218 163.621 134.38 163.883 134.609C164.146 134.837 164.35 135.125 164.479 135.448C164.608 135.77 164.658 136.119 164.626 136.466C164.594 136.812 164.48 137.146 164.293 137.439C164.106 137.732 163.852 137.977 163.552 138.153C163.252 138.329 162.915 138.431 162.568 138.451C162.113 138.486 161.658 138.375 161.271 138.134L161.495 141.145C161.76 140.925 162.073 140.77 162.409 140.694C162.745 140.618 163.094 140.623 163.428 140.708C163.762 140.792 164.071 140.955 164.331 141.182C164.59 141.409 164.792 141.694 164.92 142.014C165.048 142.334 165.098 142.679 165.067 143.023C165.036 143.366 164.924 143.697 164.741 143.988C164.557 144.28 164.307 144.524 164.012 144.701C163.716 144.878 163.382 144.982 163.039 145.005C162.581 145.041 162.124 144.93 161.734 144.689L161.958 147.699C162.266 147.438 162.641 147.267 163.041 147.205C163.441 147.143 163.85 147.193 164.223 147.35C164.596 147.506 164.919 147.762 165.155 148.091C165.391 148.419 165.532 148.806 165.562 149.209C165.592 149.613 165.51 150.017 165.325 150.376C165.139 150.736 164.858 151.037 164.512 151.247C164.166 151.456 163.769 151.566 163.365 151.564C162.96 151.562 162.564 151.448 162.22 151.235L162.444 154.254C162.791 153.956 163.224 153.778 163.679 153.744C164.025 153.716 164.373 153.77 164.694 153.902C165.015 154.034 165.3 154.24 165.526 154.504C165.751 154.768 165.911 155.081 165.992 155.419C166.072 155.756 166.072 156.108 165.99 156.446C165.908 156.783 165.748 157.096 165.521 157.359C165.295 157.622 165.01 157.828 164.688 157.959C164.367 158.09 164.019 158.143 163.673 158.114C163.327 158.084 162.993 157.973 162.699 157.789L162.923 160.8C163.232 160.54 163.607 160.37 164.006 160.309C164.405 160.249 164.814 160.3 165.186 160.456C165.558 160.613 165.88 160.869 166.116 161.197C166.352 161.525 166.492 161.912 166.522 162.315C166.552 162.718 166.47 163.121 166.285 163.48C166.1 163.839 165.82 164.141 165.474 164.35C165.129 164.56 164.733 164.671 164.329 164.67C163.925 164.668 163.529 164.556 163.185 164.344L163.402 167.354C163.751 167.058 164.187 166.882 164.644 166.853C164.931 166.831 165.219 166.867 165.491 166.957C165.764 167.047 166.016 167.189 166.234 167.377C166.452 167.564 166.63 167.793 166.759 168.049C166.889 168.306 166.966 168.585 166.987 168.871C167.009 169.158 166.973 169.446 166.883 169.718C166.794 169.991 166.651 170.243 166.463 170.461C166.276 170.679 166.047 170.857 165.791 170.986C165.534 171.116 165.255 171.193 164.969 171.214C164.511 171.251 164.054 171.14 163.664 170.898L163.888 173.909C164.153 173.689 164.466 173.534 164.802 173.458C165.138 173.382 165.488 173.387 165.822 173.471C166.155 173.556 166.465 173.719 166.724 173.946C166.983 174.173 167.185 174.458 167.313 174.778C167.441 175.098 167.491 175.443 167.46 175.786C167.429 176.129 167.317 176.46 167.134 176.752C166.95 177.044 166.701 177.288 166.405 177.465C166.109 177.641 165.776 177.745 165.432 177.769C164.977 177.804 164.522 177.693 164.135 177.452L164.351 180.463C164.616 180.238 164.931 180.079 165.269 180C165.608 179.92 165.961 179.922 166.298 180.006C166.636 180.09 166.948 180.253 167.211 180.481C167.473 180.709 167.677 180.997 167.806 181.32C167.935 181.643 167.986 181.992 167.953 182.338C167.921 182.684 167.807 183.018 167.62 183.311C167.433 183.605 167.18 183.849 166.88 184.025C166.58 184.201 166.242 184.303 165.895 184.323C165.438 184.359 164.98 184.248 164.59 184.007L164.814 187.017C165.123 186.756 165.498 186.585 165.897 186.523C166.297 186.461 166.706 186.511 167.079 186.668C167.452 186.824 167.775 187.08 168.011 187.409C168.248 187.737 168.389 188.124 168.419 188.527C168.448 188.931 168.366 189.335 168.181 189.694C167.996 190.054 167.715 190.355 167.369 190.565C167.023 190.774 166.626 190.884 166.221 190.882C165.817 190.88 165.421 190.766 165.077 190.553L165.293 193.572C165.642 193.273 166.078 193.094 166.536 193.062C166.882 193.034 167.229 193.088 167.55 193.22C167.871 193.352 168.156 193.558 168.382 193.822C168.608 194.086 168.767 194.399 168.848 194.737C168.929 195.074 168.928 195.426 168.847 195.764C168.765 196.101 168.604 196.414 168.378 196.677C168.152 196.94 167.866 197.146 167.545 197.277C167.223 197.408 166.875 197.461 166.53 197.432C166.184 197.402 165.85 197.291 165.555 197.107L165.779 200.118C166.044 199.893 166.359 199.734 166.698 199.655C167.036 199.575 167.389 199.577 167.726 199.661C168.064 199.745 168.377 199.908 168.639 200.136C168.901 200.365 169.105 200.652 169.234 200.975C169.363 201.298 169.414 201.647 169.382 201.993C169.349 202.339 169.235 202.673 169.048 202.966C168.862 203.26 168.608 203.504 168.308 203.68C168.008 203.856 167.67 203.958 167.323 203.978C166.865 204.008 166.409 203.895 166.019 203.654L166.497 210.154L298.355 200.458L285.146 18.5283L153.288 28.186Z" fill="#263238" stroke="#263238" stroke-linecap="round" stroke-linejoin="round"/>
<path d="M150.285 23.9707L151.358 38.6387C151.667 38.3785 152.042 38.2087 152.441 38.148C152.841 38.0873 153.249 38.1381 153.621 38.2948C153.994 38.4515 154.315 38.708 154.551 39.036C154.787 39.364 154.927 39.7508 154.957 40.1536C154.987 40.5564 154.905 40.9597 154.72 41.3188C154.535 41.678 154.255 41.9791 153.91 42.189C153.565 42.3988 153.168 42.5092 152.764 42.508C152.36 42.5068 151.965 42.3941 151.621 42.1822L151.845 45.193C152.191 44.8956 152.624 44.717 153.08 44.6835C153.424 44.659 153.77 44.7164 154.088 44.8509C154.407 44.9854 154.689 45.1932 154.911 45.4575C155.134 45.7217 155.291 46.0348 155.37 46.3713C155.449 46.7077 155.447 47.0581 155.364 47.3936C155.282 47.7292 155.121 48.0405 154.895 48.3022C154.67 48.5639 154.385 48.7686 154.066 48.8995C153.746 49.0304 153.4 49.0839 153.055 49.0556C152.711 49.0272 152.378 48.9179 152.084 48.7365L152.3 51.7473C152.609 51.4871 152.984 51.3172 153.383 51.2565C153.783 51.1958 154.191 51.2467 154.563 51.4034C154.935 51.5601 155.257 51.8166 155.493 52.1446C155.729 52.4726 155.869 52.8593 155.899 53.2622C155.929 53.665 155.847 54.0682 155.662 54.4274C155.477 54.7865 155.197 55.0877 154.852 55.2975C154.506 55.5074 154.11 55.6178 153.706 55.6166C153.302 55.6154 152.906 55.5027 152.563 55.2908L152.786 58.3016C153.134 58.0065 153.567 57.8306 154.022 57.7998C154.6 57.7568 155.172 57.9453 155.611 58.3239C156.051 58.7025 156.322 59.2401 156.365 59.8186C156.408 60.397 156.219 60.9688 155.841 61.4082C155.462 61.8476 154.924 62.1186 154.346 62.1616C153.888 62.1978 153.431 62.0869 153.041 61.8451L153.265 64.8559C153.53 64.6356 153.843 64.4812 154.179 64.4052C154.515 64.3291 154.865 64.3337 155.199 64.4184C155.533 64.5031 155.842 64.6656 156.101 64.8927C156.36 65.1197 156.562 65.4048 156.69 65.7247C156.818 66.0446 156.868 66.3902 156.837 66.7334C156.806 67.0765 156.694 67.4074 156.511 67.6991C156.328 67.9908 156.078 68.2349 155.782 68.4116C155.486 68.5883 155.153 68.6926 154.809 68.7159C154.354 68.7515 153.9 68.6405 153.512 68.3993L153.736 71.4101C154.001 71.1899 154.314 71.0355 154.65 70.9595C154.986 70.8834 155.336 70.888 155.67 70.9727C156.004 71.0574 156.313 71.2199 156.572 71.4469C156.831 71.674 157.033 71.9591 157.161 72.279C157.289 72.5989 157.339 72.9445 157.308 73.2876C157.277 73.6308 157.165 73.9617 156.982 74.2534C156.798 74.545 156.549 74.7892 156.253 74.9659C155.957 75.1426 155.624 75.2469 155.28 75.2701C154.822 75.3063 154.365 75.1954 153.975 74.9536L154.199 77.9644C154.508 77.7072 154.881 77.5399 155.278 77.4811C155.675 77.4222 156.081 77.4739 156.451 77.6306C156.821 77.7874 157.14 78.0429 157.374 78.3693C157.608 78.6957 157.748 79.0803 157.777 79.4808C157.807 79.8813 157.726 80.2823 157.542 80.6396C157.359 80.9969 157.081 81.2968 156.738 81.5062C156.395 81.7157 156.002 81.8267 155.6 81.827C155.199 81.8273 154.805 81.7169 154.462 81.5079L154.678 84.5187C155.027 84.2198 155.462 84.0411 155.921 84.0092C156.267 83.9807 156.614 84.0347 156.935 84.1668C157.256 84.2989 157.541 84.5054 157.767 84.7691C157.992 85.0329 158.152 85.3464 158.233 85.6839C158.314 86.0215 158.313 86.3734 158.232 86.7107C158.15 87.048 157.989 87.3611 157.763 87.6242C157.536 87.8873 157.251 88.0929 156.93 88.2241C156.608 88.3553 156.26 88.4083 155.914 88.3788C155.569 88.3493 155.235 88.2382 154.94 88.0545L155.164 91.0653C155.473 90.805 155.848 90.6352 156.247 90.5745C156.647 90.5138 157.055 90.5646 157.427 90.7213C157.8 90.878 158.121 91.1345 158.357 91.4625C158.593 91.7905 158.733 92.1773 158.763 92.5801C158.793 92.9829 158.711 93.3862 158.526 93.7453C158.341 94.1045 158.061 94.4056 157.716 94.6155C157.371 94.8253 156.974 94.9357 156.57 94.9345C156.166 94.9334 155.771 94.8206 155.427 94.6087L155.643 97.6195C155.992 97.3229 156.428 97.1469 156.886 97.1177C157.464 97.0747 158.036 97.2633 158.475 97.6419C158.915 98.0205 159.186 98.5581 159.229 99.1365C159.272 99.7149 159.083 100.287 158.705 100.726C158.326 101.166 157.788 101.437 157.21 101.48C156.762 101.498 156.32 101.377 155.944 101.132L156.168 104.143C156.433 103.923 156.746 103.768 157.082 103.692C157.418 103.616 157.767 103.621 158.101 103.705C158.435 103.79 158.745 103.953 159.004 104.18C159.263 104.407 159.465 104.692 159.593 105.012C159.721 105.332 159.771 105.677 159.74 106.02C159.709 106.364 159.597 106.694 159.414 106.986C159.23 107.278 158.981 107.522 158.685 107.699C158.389 107.875 158.056 107.98 157.712 108.003C157.257 108.04 156.802 107.929 156.415 107.686L156.631 110.697C156.896 110.472 157.211 110.313 157.549 110.234C157.888 110.154 158.241 110.157 158.578 110.24C158.916 110.324 159.228 110.487 159.491 110.715C159.753 110.944 159.957 111.231 160.086 111.554C160.215 111.877 160.266 112.226 160.233 112.572C160.201 112.918 160.087 113.252 159.9 113.545C159.713 113.839 159.46 114.083 159.16 114.259C158.86 114.435 158.522 114.537 158.175 114.557C157.72 114.593 157.266 114.482 156.878 114.241L157.102 117.251C157.411 116.995 157.785 116.828 158.182 116.77C158.579 116.712 158.985 116.765 159.355 116.922C159.724 117.08 160.043 117.336 160.276 117.663C160.51 117.99 160.648 118.375 160.677 118.775C160.706 119.176 160.624 119.577 160.44 119.934C160.255 120.291 159.976 120.59 159.633 120.799C159.29 121.007 158.896 121.117 158.494 121.117C158.093 121.116 157.699 121.005 157.357 120.795L157.581 123.806C157.929 123.507 158.365 123.328 158.823 123.296C159.169 123.268 159.517 123.322 159.838 123.454C160.159 123.586 160.444 123.792 160.67 124.056C160.895 124.32 161.055 124.633 161.136 124.971C161.217 125.309 161.216 125.66 161.134 125.998C161.053 126.335 160.892 126.648 160.665 126.911C160.439 127.174 160.154 127.38 159.832 127.511C159.511 127.642 159.163 127.695 158.817 127.666C158.471 127.636 158.138 127.525 157.843 127.342L158.067 130.352C158.415 130.059 158.848 129.883 159.302 129.851C159.648 129.822 159.996 129.876 160.317 130.008C160.638 130.14 160.923 130.347 161.148 130.61C161.374 130.874 161.534 131.188 161.614 131.525C161.695 131.863 161.695 132.215 161.613 132.552C161.531 132.889 161.37 133.202 161.144 133.466C160.918 133.729 160.632 133.934 160.311 134.065C159.99 134.197 159.642 134.25 159.296 134.22C158.95 134.191 158.616 134.08 158.322 133.896L158.546 136.907C158.895 136.61 159.331 136.434 159.788 136.405C160.075 136.384 160.363 136.42 160.635 136.51C160.908 136.601 161.16 136.744 161.377 136.932C161.594 137.119 161.772 137.348 161.901 137.605C162.03 137.862 162.107 138.141 162.128 138.427C162.148 138.714 162.113 139.002 162.022 139.274C161.932 139.547 161.789 139.799 161.601 140.016C161.413 140.233 161.184 140.411 160.928 140.54C160.671 140.669 160.391 140.746 160.105 140.767C159.65 140.802 159.196 140.691 158.808 140.45L159.024 143.461C159.289 143.236 159.604 143.077 159.943 142.997C160.281 142.918 160.634 142.92 160.971 143.004C161.309 143.088 161.622 143.25 161.884 143.479C162.146 143.707 162.35 143.995 162.479 144.318C162.608 144.641 162.659 144.99 162.627 145.336C162.594 145.682 162.48 146.016 162.293 146.309C162.107 146.602 161.853 146.847 161.553 147.023C161.253 147.199 160.915 147.301 160.568 147.321C160.111 147.357 159.654 147.246 159.264 147.004L159.487 150.015C159.752 149.795 160.066 149.641 160.402 149.564C160.738 149.488 161.087 149.493 161.421 149.578C161.755 149.662 162.064 149.825 162.323 150.052C162.583 150.279 162.784 150.564 162.912 150.884C163.04 151.204 163.091 151.55 163.06 151.893C163.029 152.236 162.917 152.567 162.733 152.858C162.55 153.15 162.3 153.394 162.004 153.571C161.709 153.748 161.375 153.852 161.031 153.875C160.607 153.919 160.179 153.832 159.804 153.628L160.02 156.639C160.285 156.414 160.6 156.255 160.938 156.176C161.277 156.096 161.63 156.098 161.967 156.182C162.305 156.266 162.617 156.428 162.88 156.657C163.142 156.885 163.346 157.173 163.475 157.496C163.604 157.819 163.655 158.168 163.622 158.514C163.59 158.86 163.476 159.194 163.289 159.487C163.102 159.78 162.849 160.025 162.549 160.201C162.249 160.377 161.911 160.479 161.564 160.499C161.11 160.527 160.658 160.416 160.267 160.182L160.491 163.193C160.838 162.896 161.271 162.717 161.726 162.684C162.02 162.65 162.317 162.676 162.6 162.76C162.883 162.845 163.146 162.985 163.373 163.173C163.6 163.362 163.787 163.594 163.923 163.856C164.058 164.118 164.139 164.405 164.161 164.7C164.183 164.994 164.145 165.29 164.05 165.569C163.955 165.849 163.804 166.106 163.607 166.326C163.41 166.546 163.17 166.723 162.903 166.848C162.635 166.973 162.345 167.043 162.05 167.053C161.592 167.083 161.136 166.97 160.746 166.729L160.97 169.74C161.279 169.48 161.653 169.31 162.053 169.249C162.452 169.188 162.86 169.239 163.233 169.396C163.605 169.553 163.927 169.809 164.163 170.137C164.398 170.465 164.539 170.852 164.569 171.255C164.598 171.657 164.516 172.061 164.332 172.42C164.147 172.779 163.866 173.08 163.521 173.29C163.176 173.5 162.78 173.61 162.376 173.609C161.972 173.608 161.576 173.495 161.232 173.283L161.456 176.294C161.803 175.999 162.236 175.823 162.691 175.792C163.27 175.749 163.841 175.938 164.281 176.316C164.72 176.695 164.991 177.233 165.034 177.811C165.077 178.389 164.889 178.961 164.51 179.401C164.131 179.84 163.594 180.111 163.015 180.154C162.558 180.19 162.101 180.079 161.711 179.838L161.935 182.848C162.2 182.628 162.513 182.474 162.849 182.398C163.185 182.322 163.534 182.326 163.868 182.411C164.202 182.496 164.511 182.658 164.771 182.885C165.03 183.112 165.232 183.397 165.36 183.717C165.488 184.037 165.538 184.383 165.507 184.726C165.476 185.069 165.364 185.4 165.181 185.692C164.997 185.983 164.747 186.227 164.452 186.404C164.156 186.581 163.822 186.685 163.479 186.708C163.024 186.744 162.569 186.633 162.182 186.392L162.398 189.403C162.663 189.177 162.978 189.019 163.316 188.939C163.655 188.86 164.007 188.862 164.345 188.946C164.682 189.029 164.995 189.192 165.257 189.421C165.52 189.649 165.724 189.937 165.853 190.259C165.982 190.582 166.032 190.931 166 191.277C165.968 191.624 165.854 191.957 165.667 192.251C165.48 192.544 165.226 192.789 164.926 192.965C164.627 193.141 164.289 193.243 163.942 193.263C163.484 193.299 163.027 193.188 162.637 192.946L162.861 195.957C163.126 195.737 163.439 195.582 163.775 195.506C164.111 195.43 164.461 195.435 164.795 195.519C165.129 195.604 165.438 195.767 165.697 195.994C165.956 196.221 166.158 196.506 166.286 196.826C166.414 197.146 166.464 197.491 166.433 197.834C166.402 198.178 166.29 198.508 166.107 198.8C165.924 199.092 165.674 199.336 165.378 199.513C165.082 199.689 164.749 199.794 164.405 199.817C163.951 199.845 163.499 199.734 163.108 199.5L163.587 205.993L295.444 196.297L282.143 14.2744L150.285 23.9707Z" fill="white" stroke="#263238" stroke-miterlimit="10"/>
<path d="M200.573 73.0003L267.838 68.0518" stroke="#263238" stroke-miterlimit="10"/>
<path d="M192.33 64.8051L176.37 65.98L177.545 81.9404L193.505 80.7655L192.33 64.8051Z" stroke="#263238" stroke-miterlimit="10"/>
<path d="M202.534 99.6038L269.799 94.6553" stroke="#263238" stroke-miterlimit="10"/>
<path d="M194.294 91.4086L178.333 92.5835L179.508 108.544L195.468 107.369L194.294 91.4086Z" stroke="#263238" stroke-miterlimit="10"/>
<path d="M204.487 126.199L271.752 121.258" stroke="#263238" stroke-miterlimit="10"/>
<path d="M196.249 118.013L180.289 119.188L181.464 135.148L197.424 133.973L196.249 118.013Z" stroke="#263238" stroke-miterlimit="10"/>
<path d="M206.448 152.802L273.713 147.854" stroke="#263238" stroke-miterlimit="10"/>
<path d="M198.212 144.616L182.252 145.791L183.427 161.751L199.387 160.577L198.212 144.616Z" stroke="#263238" stroke-miterlimit="10"/>
<path d="M208.401 179.405L275.666 174.457" stroke="#263238" stroke-miterlimit="10"/>
<path d="M200.168 171.221L184.207 172.396L185.382 188.356L201.343 187.181L200.168 171.221Z" stroke="#263238" stroke-miterlimit="10"/>
<path d="M178.865 63.5201L183.728 77.6786L200.133 56.603" stroke="#FF781F" stroke-width="4" stroke-linecap="round" stroke-linejoin="round"/>
<path d="M180.385 89.3824L186.893 99.9897L201.006 84.0479" stroke="#FF781F" stroke-width="4" stroke-linecap="round" stroke-linejoin="round"/>
<path d="M182.454 117.506L188.962 128.106L203.074 112.172" stroke="#FF781F" stroke-width="4" stroke-linecap="round" stroke-linejoin="round"/>
<path d="M200.373 50.7746C200.248 50.5553 200.179 50.3088 200.172 50.0567L199.871 46.3202C199.871 45.996 199.778 45.471 199.724 44.7299C199.577 43.1859 199.431 41.3871 199.284 39.4185L199.176 38.1138C199.083 38.9373 198.906 40.0953 198.643 41.5878C198.381 43.1318 198.211 44.4056 198.134 45.3938V45.5482L198.095 46.0346C198.086 46.426 198.029 46.8149 197.925 47.1926C197.887 47.3724 197.791 47.5346 197.651 47.6545C197.512 47.7744 197.337 47.8454 197.153 47.8565C196.551 47.9028 196.188 47.1308 196.073 45.5405C195.993 44.5944 195.833 43.6569 195.594 42.7381C195.347 41.75 194.969 40.5379 194.475 39.0943L193.564 36.2842L193.772 39.3722C193.839 40.2832 194.009 42.0176 194.282 44.5755L194.459 46.297L194.768 49.7556C194.792 50.112 194.682 50.4646 194.459 50.7438C194.293 50.7774 194.121 50.7649 193.962 50.7077C193.803 50.6506 193.662 50.5509 193.556 50.4195C193.349 50.0768 193.237 49.6851 193.232 49.2847L193.131 47.208C193.131 46.2893 193.085 45.61 193.054 45.1545L192.645 40.2677L192.228 35.3501C192.177 34.6244 192.115 33.5359 192.043 32.0845L192.691 31.629C192.863 31.6541 193.018 31.7456 193.124 31.8838C193.324 32.1378 193.497 32.412 193.641 32.7021C194.483 34.7103 195.188 36.7738 195.748 38.8781C195.859 39.2308 195.952 39.5889 196.026 39.9512C196.304 40.9162 196.505 41.6496 196.621 42.1514L197.146 44.066L197.261 43.2245L197.586 41.1092C197.771 39.874 197.918 38.7932 198.026 37.8745C198.134 36.9559 198.234 35.9445 198.327 34.8714C198.419 33.5976 198.458 32.5554 198.45 31.6831V31.5287C198.457 31.4251 198.484 31.3238 198.53 31.231C198.577 31.1381 198.641 31.0556 198.721 30.9883C198.886 30.8454 199.096 30.7637 199.315 30.7567C199.393 30.7523 199.47 30.7653 199.543 30.7947C199.615 30.824 199.679 30.8691 199.732 30.9265C199.846 31.0384 199.919 31.1851 199.94 31.3434C200.09 33.3763 200.388 36.4 200.836 40.4144C201.067 42.3804 201.268 44.3079 201.438 46.1967C201.538 47.0536 201.631 48.1421 201.731 49.4545C201.766 49.8251 201.685 50.1973 201.5 50.5199C201.444 50.6523 201.355 50.7681 201.241 50.856C201.128 50.9439 200.993 51.001 200.851 51.0217C200.756 51.0368 200.658 51.0209 200.571 50.9765C200.485 50.9321 200.416 50.8614 200.373 50.7746Z" fill="#263238"/>
<path d="M206.301 49.7325C206.461 49.3619 206.448 47.9208 206.263 45.4093C206.215 44.7663 206.127 44.1269 206 43.4947L205.869 42.769C205.8 42.4272 205.748 42.0818 205.715 41.7346L205.668 41.0784C205.468 40.6692 205.097 39.9049 204.572 38.7624C204.047 37.6198 203.607 36.7088 203.283 35.9523C202.997 35.3887 202.789 34.7887 202.665 34.169V34.0377L203.213 33.5668C203.507 33.5668 203.839 33.9296 204.209 34.6167C204.629 35.4653 204.995 36.3394 205.306 37.2338C205.722 38.3661 205.931 38.9682 205.931 39.0403C205.985 38.8473 206.078 38.2065 206.201 37.1103C206.305 36.1323 206.462 35.1607 206.672 34.1998C206.896 33.3584 207.166 32.9183 207.444 32.8952C207.605 32.8844 207.766 32.9279 207.899 33.0187C207.961 33.0586 208.012 33.1121 208.05 33.175C208.087 33.2379 208.11 33.3085 208.116 33.3815C208.135 34.6283 207.988 35.8721 207.676 37.0794C207.354 38.3041 207.19 39.565 207.189 40.8313L207.745 48.451C207.83 49.5781 207.591 50.1648 207.035 50.2034C206.765 50.2574 206.518 50.0876 206.301 49.7325Z" fill="#263238"/>
<path d="M218.738 48.9529C218.356 48.8169 218.005 48.6071 217.704 48.3353C217.418 48.0466 217.185 47.7094 217.017 47.3394C216.81 46.926 216.642 46.4945 216.515 46.0502C216.376 45.6015 216.275 45.1418 216.214 44.676C216.114 44.0738 216.044 43.5489 215.99 43.132L215.882 41.6652L215.813 40.6539C215.743 39.6734 215.697 38.8706 215.689 38.2452C215.667 37.4319 215.717 36.6183 215.836 35.8134C215.916 35.0943 216.134 34.3973 216.476 33.7599C216.768 33.1593 217.267 32.6847 217.882 32.4244C218.213 32.2757 218.569 32.1893 218.931 32.1696C219.657 32.113 220.035 32.2983 220.066 32.7254C220.075 32.8209 220.061 32.9171 220.025 33.0058C219.988 33.0945 219.931 33.1731 219.858 33.235C219.706 33.3763 219.509 33.4585 219.302 33.4666C219.21 33.4784 219.116 33.4784 219.024 33.4666H218.769C218.615 33.4834 218.468 33.5389 218.341 33.628C218.214 33.7171 218.112 33.8368 218.044 33.9761C217.819 34.3827 217.662 34.8234 217.58 35.2808C217.38 36.4228 217.28 37.5799 217.279 38.7393C217.279 39.8896 217.318 40.7465 217.364 41.3024C217.411 41.8582 217.488 42.6611 217.611 43.6184C217.722 44.4393 217.927 45.2448 218.221 46.0193C218.337 46.3551 218.501 46.6724 218.708 46.9611C218.887 47.195 219.113 47.3895 219.371 47.5324C219.647 47.6942 219.964 47.7696 220.282 47.7486C221.093 47.6868 221.394 46.3126 221.201 43.6106L221.116 42.4604C220.92 42.4246 220.718 42.4246 220.522 42.4604H220.298H220.02C219.425 42.499 219.117 42.3291 219.094 41.9431C219.078 41.8399 219.088 41.7345 219.123 41.6361C219.158 41.5378 219.217 41.4497 219.294 41.3796C219.462 41.2333 219.674 41.1489 219.896 41.1402H220.252C221.796 41.0322 222.568 41.2329 222.568 41.7578C222.569 42.0652 222.548 42.3722 222.506 42.6765C222.444 42.9814 222.416 43.292 222.421 43.6029C222.421 43.8886 222.498 44.3363 222.598 44.9385L222.745 46.274C222.791 46.6361 222.75 47.0039 222.627 47.3473C222.503 47.6908 222.301 48.0002 222.035 48.2504C221.487 48.761 220.776 49.0617 220.028 49.0996C219.592 49.1425 219.153 49.0925 218.738 48.9529Z" fill="#263238"/>
<path d="M227.253 48.4584C226.843 48.1887 226.502 47.8265 226.258 47.4008C225.683 46.375 225.291 45.2569 225.1 44.0966C224.868 43.0097 224.711 41.9084 224.629 40.8002C224.618 40.6305 224.618 40.4603 224.629 40.2907V39.8352C224.629 39.7503 224.629 39.7117 224.59 39.7117V39.2562L224.49 37.4806C224.49 36.9402 224.49 36.0755 224.49 34.8867C224.514 34.0737 224.651 33.2681 224.899 32.4935C224.965 32.1949 225.103 31.9168 225.3 31.6829C225.455 31.504 225.674 31.3931 225.91 31.3741C226.537 31.3139 227.17 31.3929 227.763 31.6057C228.307 31.8035 228.8 32.1199 229.207 32.5321C229.602 32.9782 229.93 33.4803 230.179 34.022C230.462 34.6384 230.679 35.2827 230.828 35.9443C230.989 36.6843 231.095 37.4352 231.144 38.1908V38.3915C231.183 38.9165 231.229 39.3874 231.276 39.8043L231.407 41.2479C231.762 46.1013 230.81 48.6128 228.55 48.7827C228.094 48.8266 227.636 48.7121 227.253 48.4584ZM229.122 47.3004C229.377 47.0019 229.553 46.6432 229.631 46.2582C229.898 45.3405 230.025 44.3881 230.01 43.4327C230.01 42.5681 230.01 41.8192 229.971 41.1939C229.917 40.4219 229.786 39.4415 229.577 38.2217C229.369 37.0019 229.261 35.9675 229.214 35.3267L229.176 34.8712C229.109 34.2569 228.837 33.683 228.404 33.2423C228.215 33.0348 227.981 32.8729 227.72 32.7686C227.459 32.6643 227.178 32.6204 226.898 32.6401C226.62 32.6599 226.359 32.7793 226.162 32.9764C225.964 33.1735 225.845 33.4352 225.825 33.7132C225.691 34.3865 225.657 35.0759 225.725 35.759C225.725 36.0755 225.779 36.3457 225.81 36.531L225.856 37.2181L225.895 38.3838C225.895 38.7389 225.895 39.1558 225.933 39.5495C225.995 40.4605 226.088 41.3637 226.204 42.2593C226.36 43.4957 226.618 44.7171 226.976 45.9108C227.338 47.146 227.748 47.7405 228.303 47.7019C228.46 47.6925 228.612 47.6522 228.753 47.5833C228.893 47.5143 229.019 47.4182 229.122 47.3004Z" fill="#263238"/>
<path d="M238.741 47.6015C238.637 47.5298 238.553 47.434 238.495 47.3223C238.438 47.2107 238.408 47.0865 238.409 46.9608C238.315 46.0982 238.168 45.2423 237.969 44.3977L237.83 43.8728L235.298 43.6798C235.221 44.0735 235.136 44.8687 235.035 46.0653C235.058 46.647 234.936 47.2253 234.68 47.7482C234.624 47.8278 234.55 47.893 234.464 47.9386C234.379 47.9842 234.283 48.0089 234.186 48.0107C233.987 48.0236 233.79 47.9722 233.622 47.864C233.54 47.8183 233.47 47.7528 233.418 47.6733C233.367 47.5938 233.336 47.5028 233.329 47.4085L233.375 47.285V47.1769C234.154 42.8723 234.685 38.5265 234.966 34.161C234.966 34.0915 234.966 33.9757 234.966 33.8213C234.966 33.6669 234.966 33.4199 234.966 33.1188C234.966 32.4935 234.966 31.9917 235.028 31.6134C235.038 31.3147 235.114 31.022 235.251 30.7565L236.116 30.6947C236.329 30.6753 236.542 30.7154 236.734 30.8105C236.817 30.8543 236.888 30.9196 236.938 30.9996C236.988 31.0796 237.016 31.1716 237.019 31.266C237.217 33.1759 237.537 35.0712 237.977 36.9402C238.375 38.7239 238.677 40.5279 238.88 42.3442C238.925 42.6053 238.987 42.8632 239.065 43.1162C239.15 43.3674 239.212 43.6258 239.25 43.8882C239.25 44.004 239.382 44.5058 239.613 45.3859C239.761 45.8923 239.875 46.4081 239.953 46.9299C239.984 47.0742 239.965 47.2247 239.901 47.3575C239.837 47.4903 239.73 47.5979 239.598 47.6633C239.312 47.7179 239.016 47.6966 238.741 47.6015ZM237.444 42.0431C237.267 40.0999 236.989 38.1672 236.61 36.2531L236.162 33.6438C235.722 37.6582 235.452 40.6921 235.329 42.7379C236.06 42.9499 236.823 43.0309 237.583 42.9773C237.505 42.6714 237.458 42.3584 237.444 42.0431Z" fill="#263238"/>
<path d="M243.828 47.2772C243.584 47.4603 243.292 47.5701 242.987 47.5937C242.885 47.5998 242.783 47.5821 242.689 47.5418C242.596 47.5016 242.512 47.4401 242.447 47.3621C242.3 47.2152 242.209 47.0211 242.192 46.814C242.091 45.3935 242.007 43.5021 241.953 41.1321C241.865 38.6051 241.778 36.7188 241.69 35.4733V35.2958C241.512 34.2381 241.404 33.4507 241.366 32.9257C241.25 31.3277 241.482 30.5017 242.076 30.4631C242.158 30.4561 242.241 30.4662 242.32 30.4928C242.398 30.5194 242.47 30.5618 242.532 30.6175C242.596 30.6694 242.649 30.7338 242.687 30.8068C242.725 30.8798 242.749 30.9598 242.755 31.0421C242.755 31.2505 242.755 31.5747 242.755 32.0148C242.736 32.3362 242.736 32.6584 242.755 32.9798C242.838 34.112 242.923 35.1414 243.01 36.0678C243.087 36.9633 243.172 37.9746 243.257 39.1095C243.18 39.4485 243.154 39.7972 243.18 40.1439V40.445L243.273 42.4445C243.273 43.0389 243.319 43.7183 243.373 44.4749C243.458 45.6406 243.782 46.2041 244.338 46.1578H244.5L244.817 46.1192C244.963 46.1192 245.156 46.0729 245.396 46.0575C246.307 45.988 246.778 46.2041 246.816 46.7137C246.822 46.7983 246.807 46.883 246.774 46.9609C246.74 47.0388 246.689 47.1075 246.623 47.1614C246.468 47.2948 246.282 47.3877 246.083 47.4316C245.345 47.2585 244.583 47.2063 243.828 47.2772Z" fill="#263238"/>
<path d="M248.646 46.8453C248.537 46.773 248.445 46.6798 248.373 46.571C248.302 46.4623 248.253 46.3403 248.229 46.2123L248.476 45.7645C248.64 45.7654 248.803 45.7861 248.962 45.8263C249.157 45.8456 249.354 45.8456 249.549 45.8263C249.704 45.8082 249.853 45.7567 249.987 45.6754C250.12 45.5941 250.234 45.4849 250.321 45.3553C250.561 45.0315 250.722 44.6561 250.792 44.2591C250.943 43.5335 250.998 42.7911 250.954 42.0512C250.828 40.8089 250.372 39.6229 249.634 38.6158L249.325 38.1526C248.962 37.6199 248.654 37.1413 248.399 36.7244C248.142 36.2829 247.922 35.8207 247.743 35.3425C247.494 34.7211 247.342 34.0648 247.295 33.3971C247.247 32.5928 247.36 31.7872 247.627 31.027C247.755 30.6433 247.978 30.2982 248.275 30.0234C248.557 29.763 248.919 29.6076 249.302 29.5834C249.609 29.5625 249.915 29.641 250.174 29.8073C250.296 29.8763 250.399 29.9732 250.475 30.09C250.552 30.2068 250.6 30.3401 250.614 30.4789C250.621 30.5475 250.611 30.6167 250.584 30.6801C250.557 30.7436 250.514 30.7992 250.46 30.8417C250.342 30.9383 250.196 30.9951 250.043 31.0039C249.856 31.0192 249.668 30.9789 249.503 30.8881C249.132 30.9344 248.862 31.2818 248.684 31.9457C248.56 32.4295 248.502 32.9284 248.515 33.4279C248.553 33.9312 248.668 34.4258 248.854 34.8947C249.029 35.3571 249.257 35.7975 249.534 36.2071L250.167 37.1799L251.178 38.7856C251.468 39.2898 251.699 39.8261 251.865 40.3837C252.052 40.9966 252.171 41.6283 252.22 42.2673C252.296 43.2883 252.126 44.3126 251.726 45.255C251.533 45.7311 251.219 46.1488 250.815 46.467C250.411 46.7814 249.921 46.967 249.41 46.9997V47.0923C249.138 47.0789 248.874 46.9936 248.646 46.8453Z" fill="#263238"/>
<path d="M43.4635 265.939C43.4635 265.939 45.0075 222.367 50.0178 221.209C55.0281 220.051 68.1444 224.297 110.18 222.753C152.215 221.209 174.588 222.375 176.132 223.525C177.676 224.675 183.08 289.863 180.764 290.635C178.448 291.407 130.236 286.389 110.18 286.775C90.1232 287.161 49.6318 309.032 46.1578 308.26C42.6838 307.488 43.4635 265.939 43.4635 265.939Z" fill="#CCCCCC" stroke="#263238" stroke-linecap="round" stroke-linejoin="round"/>
<path d="M311.996 265.939C311.996 265.939 310.452 222.367 305.442 221.209C300.432 220.051 287.315 224.297 245.28 222.753C203.245 221.209 180.872 222.375 179.328 223.525C177.784 224.675 178.448 289.863 180.764 290.635C183.08 291.407 225.223 286.389 245.28 286.775C265.336 287.161 309.518 304.801 312.992 304.029C316.466 303.257 311.996 265.939 311.996 265.939Z" fill="#CCCCCC" stroke="#263238" stroke-linecap="round" stroke-linejoin="round"/>
<path d="M319.878 350.102H38.2603V362.138H319.878V350.102Z" fill="#263238" stroke="#263238" stroke-linecap="round" stroke-linejoin="round"/>
<path d="M319.222 333.435H43.8496V351.175H319.222V333.435Z" fill="#CCCCCC" stroke="#263238" stroke-linecap="round" stroke-linejoin="round"/>
<path d="M182.817 317.007H38.8083L57.5602 286.381H182.817V317.007Z" fill="#E0E0E0" stroke="#263238" stroke-linecap="round" stroke-linejoin="round"/>
<path d="M318.187 317.007H182.315V286.381H304.469L318.187 317.007Z" fill="#E0E0E0" stroke="#263238" stroke-linecap="round" stroke-linejoin="round"/>
<path d="M182.817 303.744H43.8496V334.361H182.817V303.744Z" fill="#CCCCCC" stroke="#263238" stroke-linecap="round" stroke-linejoin="round"/>
<path d="M318.187 303.744H182.315V334.361H318.187V303.744Z" fill="#CCCCCC" stroke="#263238" stroke-linecap="round" stroke-linejoin="round"/>
<path d="M108.257 243.574C108.257 243.574 94.7552 239.336 92.8175 240.486C90.8798 241.636 95.5195 264.418 96.6775 270.594C97.8355 276.77 95.5195 285.64 97.8355 286.806C100.152 287.972 145.653 289.508 151.829 288.736C158.005 287.964 145.267 254.413 144.109 244.771C142.951 235.128 143.723 236.279 139.091 237.823C134.459 239.367 118.664 243.574 108.257 243.574Z" fill="white" stroke="#263238" stroke-linecap="round" stroke-linejoin="round"/>
<path d="M31.6519 260.542L45.9493 252.174H54.9045C55.7235 252.174 56.5089 252.499 57.088 253.078C57.6672 253.657 57.9925 254.443 57.9925 255.262V285.717L47.6477 303.998L31.6519 260.542Z" fill="#CCCCCC" stroke="#263238" stroke-linecap="round" stroke-linejoin="round"/>
<path d="M95.6276 227.624C95.6276 227.624 82.5036 238.432 70.1516 238.803C57.7996 239.174 52.3956 236.109 45.0848 239.961C37.7739 243.813 58.2088 287.4 65.1568 289.716C72.1048 292.032 109.161 283.54 113.36 281.996C117.56 280.452 103.726 242.269 101.78 236.101C99.835 229.933 99.8736 225.694 95.6276 227.624Z" fill="#FF781F" stroke="#263238" stroke-miterlimit="10"/>
<path d="M32.7791 260.542H43.8187C44.3347 260.542 44.8457 260.644 45.3224 260.842C45.7992 261.039 46.2324 261.329 46.5973 261.693C46.9621 262.058 47.2516 262.491 47.4491 262.968C47.6465 263.445 47.7482 263.956 47.7482 264.472V359.799C47.7482 360.683 47.3968 361.531 46.7714 362.157C46.1459 362.782 45.2976 363.134 44.4131 363.134H32.1846C31.3001 363.134 30.4519 362.782 29.8264 362.157C29.201 361.531 28.8496 360.683 28.8496 359.799V264.472C28.8496 263.956 28.9512 263.445 29.1487 262.968C29.3462 262.491 29.6356 262.058 30.0005 261.693C30.3654 261.329 30.7986 261.039 31.2753 260.842C31.7521 260.644 32.2631 260.542 32.7791 260.542Z" fill="#CCCCCC" stroke="#263238" stroke-linecap="round" stroke-linejoin="round"/>
<path d="M325.19 260.542L310.892 252.174H301.937C301.118 252.174 300.332 252.499 299.753 253.078C299.174 253.657 298.849 254.443 298.849 255.262V285.717L313.023 303.998L325.19 260.542Z" fill="#CCCCCC" stroke="#263238" stroke-linecap="round" stroke-linejoin="round"/>
<path d="M314.15 260.542H325.19C326.232 260.542 327.231 260.956 327.968 261.693C328.705 262.43 329.119 263.43 329.119 264.472V359.799C329.119 360.683 328.768 361.531 328.142 362.157C327.517 362.782 326.668 363.134 325.784 363.134H313.556C312.671 363.134 311.823 362.782 311.197 362.157C310.572 361.531 310.22 360.683 310.22 359.799V264.472C310.22 263.43 310.634 262.43 311.371 261.693C312.108 260.956 313.108 260.542 314.15 260.542Z" fill="#CCCCCC" stroke="#263238" stroke-linecap="round" stroke-linejoin="round"/>
<path d="M257.292 229.685C257.292 229.685 270.416 240.493 282.768 240.864C295.12 241.235 300.524 238.17 307.835 242.022C315.146 245.874 294.711 289.461 287.763 291.777C280.815 294.093 243.797 285.601 239.559 284.057C235.321 282.513 249.201 244.33 251.139 238.162C253.077 231.994 253.046 227.74 257.292 229.685Z" fill="#FF781F" stroke="#263238" stroke-miterlimit="10"/>
<path d="M260.859 243.574C260.859 243.574 274.361 239.336 276.299 240.486C278.236 241.636 273.597 264.418 272.439 270.594C271.281 276.77 273.597 285.64 271.281 286.806C268.965 287.972 223.463 289.508 217.287 288.736C211.111 287.964 223.841 254.413 225.007 244.771C226.173 235.128 225.393 236.279 230.025 237.823C234.657 239.367 250.452 243.574 260.859 243.574Z" fill="white" stroke="#263238" stroke-linecap="round" stroke-linejoin="round"/>
<path d="M146.086 292.434C146.086 292.434 149.861 292.959 150.718 294.642C151.574 296.324 149.776 299.467 145.893 300.516C140.892 301.671 135.65 301.127 130.993 298.972C125.743 296.556 125.218 295.715 126.268 294.981C127.318 294.248 146.086 292.434 146.086 292.434Z" fill="white" stroke="#263238" stroke-miterlimit="10"/>
<path d="M103.857 207.946C103.857 207.946 99.8195 209.737 95.9286 211.389C93.2028 212.483 90.7876 214.23 88.8957 216.477L87.5447 217.967L91.5822 255.679C91.5822 255.679 87.0969 267.653 88.4402 276.778C89.7835 285.903 97.7042 291.446 105.501 293.538C113.299 295.63 125.257 297.135 133.34 296.085C141.423 295.035 148.602 292.048 150.995 291.145C153.389 290.241 155.187 286.057 155.187 286.057C155.187 286.057 170.002 274.238 174.04 270.046C178.077 265.854 178.525 255.378 175.089 252.537C171.654 249.696 166.86 251.487 165.208 252.39C163.556 253.293 158.329 253.733 149.644 256.428C140.959 259.122 137.076 259.871 137.076 259.871L127.202 260.643C127.202 260.643 126.755 253.757 127.503 251.51C128.252 249.264 132.29 239.39 132.29 239.39C132.29 239.39 134.235 236.248 134.382 230.712C134.529 225.177 128.399 216.044 126.453 213.651C124.508 211.258 117.321 204.526 115.645 204.225C113.97 203.924 103.857 207.946 103.857 207.946Z" fill="#7D7D7D" stroke="#263238" stroke-linecap="round" stroke-linejoin="round"/>
<path d="M128.021 247.858C128.021 247.858 134.127 258.551 136.513 261.708C138.083 263.862 139.876 265.844 141.863 267.622C142.634 268.387 143.337 269.219 143.962 270.107H135.941L127.063 263.237C127.063 263.237 125.156 256.644 125.342 253.301C125.523 251.216 126.478 249.274 128.021 247.858Z" fill="white" stroke="#263238" stroke-miterlimit="10"/>
<path d="M140.62 268.834C142.134 267.933 143.695 267.116 145.298 266.386C145.794 266.338 146.294 266.389 146.77 266.536C147.246 266.683 147.688 266.924 148.07 267.243C149.005 267.825 150.061 268.185 151.158 268.293C151.636 268.293 152.586 268.1 152.493 268.965C152.401 269.829 151.351 270.107 151.351 270.107L141.608 269.729L140.62 268.834Z" fill="white" stroke="#263238" stroke-miterlimit="10"/>
<path d="M127.504 251.487C128.276 249.248 132.29 239.367 132.29 239.367C132.29 239.367 134.235 236.225 134.382 230.689C134.529 225.154 128.399 216.021 126.454 213.628C124.508 211.235 117.321 204.503 115.646 204.202C113.97 203.901 103.826 207.946 103.826 207.946C103.826 207.946 99.7887 209.737 95.8978 211.389C93.172 212.483 90.7568 214.23 88.8649 216.477L87.5139 217.967L91.5515 255.679C89.7962 260.603 88.6805 265.733 88.2319 270.941C90.4552 272.138 94.9097 273.342 103.826 273.342C121.636 273.342 127.172 267.799 127.473 264.958C127.691 263.508 127.588 262.027 127.172 260.62C127.172 260.62 126.755 253.734 127.504 251.487Z" fill="#FF781F" stroke="#263238" stroke-miterlimit="10"/>
<path d="M111.747 248.422L120.309 243.875" stroke="#263238" stroke-miterlimit="10"/>
<path d="M123.126 243.435L118.572 246.693" stroke="#263238" stroke-miterlimit="10"/>
<path d="M140.62 268.834C140.62 268.834 118.17 270.247 117.39 270.378C116.316 270.672 115.266 271.046 114.248 271.497L140.35 271.389C140.35 271.389 138.605 270.061 140.62 268.834Z" fill="white" stroke="#263238" stroke-miterlimit="10"/>
<path d="M140.35 271.374L157.148 271.258L157.372 270.138C157.372 270.138 149.421 270.023 145.499 269.366C141.577 268.71 140.573 268.594 139.446 269.93L140.35 271.374Z" fill="#E0E0E0" stroke="#263238" stroke-linecap="round" stroke-linejoin="round"/>
<path d="M110.666 275.604L102.606 285.254L129.148 286.265L140.35 271.373C140.253 270.997 140.037 270.661 139.733 270.418C139.43 270.174 139.055 270.035 138.667 270.022C137.323 270.022 114.248 271.482 114.248 271.482L110.666 275.604Z" fill="white" stroke="#263238" stroke-miterlimit="10"/>
<path d="M135.64 273.288C134.868 275.226 129.364 284.598 128.399 286.25H129.171L140.373 271.358C140.276 270.981 140.06 270.646 139.756 270.402C139.453 270.159 139.079 270.02 138.69 270.007C137.358 270.759 136.293 271.905 135.64 273.288Z" fill="#E0E0E0" stroke="#263238" stroke-linecap="round" stroke-linejoin="round"/>
<path d="M165.447 255.532C163.392 256.358 161.487 257.518 159.812 258.968C157.619 261.067 150.169 267.946 150.169 267.946" stroke="#263238" stroke-miterlimit="10"/>
<path d="M139.284 273.064C139.284 273.064 147.112 273.929 151.219 276.6C155.326 279.271 155.805 284.15 155.187 286.057" fill="#7D7D7D"/>
<path d="M139.284 273.064C139.284 273.064 147.112 273.929 151.219 276.6C155.326 279.271 155.805 284.15 155.187 286.057" stroke="#263238" stroke-linecap="round" stroke-linejoin="round"/>
<path d="M147.498 289.585C147.498 289.585 140.55 294.171 134.606 295.892" stroke="#263238" stroke-miterlimit="10"/>
<path d="M92.5706 278.352C92.5706 278.352 95.3961 275.643 101.101 274.014" stroke="#263238" stroke-miterlimit="10"/>
<path d="M90.1541 275.898C93.3696 275.149 96.6408 274.663 99.9353 274.446" stroke="#263238" stroke-miterlimit="10"/>
<path d="M123.69 271.204L122.802 271.976L113.067 260.535C113.018 260.476 112.98 260.409 112.957 260.336C112.934 260.264 112.925 260.187 112.932 260.111C112.938 260.035 112.96 259.961 112.995 259.893C113.03 259.825 113.078 259.765 113.137 259.716C113.254 259.618 113.405 259.569 113.558 259.58C113.711 259.592 113.854 259.663 113.955 259.778L123.69 271.204Z" fill="white" stroke="#263238" stroke-miterlimit="10"/>
<path d="M87.4675 221.649C87.4675 221.649 81.2915 254.382 80.8515 256.551C80.706 257.369 80.8279 258.211 81.1993 258.954C81.5706 259.696 82.1715 260.299 82.9127 260.674C83.7774 260.998 96.1371 270.208 100.584 272.593C105.031 274.979 109.794 277.472 109.794 277.472C109.794 277.472 112.395 279.317 114.565 279.642C116.625 279.784 118.695 279.712 120.741 279.425C120.741 279.425 125.373 279.209 126.145 278.653C126.917 278.098 128.206 274.531 127.882 273.882C127.557 273.234 124.632 269.25 123.435 268.355C122.238 267.459 115.306 270.084 114.009 270.632C112.922 271.001 111.789 271.219 110.643 271.281L92.115 254.258L99.835 232.642L87.4675 221.649Z" fill="white" stroke="#263238" stroke-miterlimit="10"/>
<path d="M117.274 276.284L126.917 277.689" stroke="#263238" stroke-miterlimit="10"/>
<path d="M118.896 273.134L127.357 276.067" stroke="#263238" stroke-miterlimit="10"/>
<path d="M120.308 270.1L127.897 273.898" stroke="#263238" stroke-miterlimit="10"/>
<path d="M101.611 224.706L99.8196 232.635L85.1516 222.761C85.8482 221.114 86.6475 219.513 87.5448 217.967C88.3212 216.72 89.1719 215.521 90.0924 214.377C91.8957 213.125 93.8586 212.12 95.9287 211.389C97.4949 210.767 99.1804 210.503 100.862 210.617" fill="#FF781F"/>
<path d="M101.611 224.706L99.8196 232.635L85.1516 222.761C85.8482 221.114 86.6475 219.513 87.5448 217.967C88.3212 216.72 89.1719 215.521 90.0924 214.377C91.8957 213.125 93.8586 212.12 95.9287 211.389C97.4949 210.767 99.1804 210.503 100.862 210.617" stroke="#263238" stroke-miterlimit="10"/>
<path d="M121.667 163.803C121.667 163.803 105.054 163.95 98.0207 169.207C90.9878 174.464 96.523 196.744 96.6697 202.403C96.7497 204.234 96.415 206.059 95.6904 207.742C94.9658 209.425 93.8702 210.923 92.4855 212.123C91.4356 213.026 90.0923 214.369 90.0923 214.369C90.0923 214.369 100.715 212.123 104.451 210.509C108.188 208.896 113.584 203.777 114.179 203.028C114.773 202.28 120.47 213.651 123.157 215.751C125.844 217.851 132.29 230.118 133.193 233.553C133.465 234.534 133.525 235.562 133.371 236.568C133.216 237.574 132.851 238.535 132.298 239.39C132.298 239.39 139.632 233.854 141.121 228.921C142.611 223.988 138.134 214.848 134.837 211.111C131.541 207.375 127.048 198.52 126.608 195.077C126.168 191.634 131.101 174.573 130.352 169.184C129.603 163.795 124.06 162.599 121.667 163.803Z" fill="#263238" stroke="#263238" stroke-miterlimit="10"/>
<path d="M122.694 169.168C122.694 169.168 126.16 173.268 127.11 177.058C128.059 180.849 129.109 184.099 129.951 185.257C130.792 186.415 132.784 186.94 132.892 187.882C133 188.824 130.368 190.723 130.368 190.723C130.162 193.298 129.812 195.86 129.318 198.396C128.685 201.029 127.951 201.129 126.268 200.712C124.585 200.295 121.119 199.662 121.119 199.662C121.119 199.662 119.436 207.336 120.17 209.961C120.903 212.586 124.03 216.693 124.485 219.109C124.941 221.526 125.218 224.467 117.645 225.208C110.072 225.949 105.98 215.944 104.297 213.327L102.614 210.694C102.614 210.694 109.663 206.834 111.338 202.202C112.346 199.445 112.565 196.462 111.971 193.587C110.504 193.162 109.237 192.229 108.397 190.954C108.07 190.32 107.9 189.618 107.9 188.905C107.9 188.192 108.07 187.489 108.397 186.855C109.965 186.806 111.521 186.56 113.029 186.122C114.712 185.489 117.761 180.023 119.977 176.448C121.325 174.211 122.247 171.742 122.694 169.168Z" fill="white" stroke="#263238" stroke-miterlimit="10"/>
<path d="M125.11 191.248C125.11 191.248 125.952 192.297 128.584 192.089" stroke="#263238" stroke-miterlimit="10"/>
<path d="M123.96 180.648C124.287 180.146 124.74 179.74 125.274 179.469C125.808 179.198 126.404 179.072 127.002 179.104" stroke="#263238" stroke-miterlimit="10"/>
<path d="M126.986 182.964C127.187 183.736 127.079 184.408 126.739 184.508C126.4 184.608 125.967 184.06 125.767 183.304C125.566 182.547 125.674 181.86 126.006 181.76C126.338 181.659 126.778 182.192 126.986 182.964Z" fill="#263238"/>
<path d="M121.119 199.662L117.962 198.713L120.386 203.654L121.119 199.662Z" fill="#263238" stroke="#263238" stroke-miterlimit="10"/>
</svg>
